<svg width="128" height="128" viewBox="0 0 128 128" fill="none" xmlns="http://www.w3.org/2000/svg">
<g clip-path="url(#clip0_301_54)">
<rect x="2.25" y="2.25" width="123.5" height="123.5" rx="42.75" stroke="black" stroke-width="4.5"/>
<path d="M35.592 84L43.08 46.848H48.624L47.112 54.192H47.472C48.768 51.408 50.28 49.344 52.008 48C53.784 46.656 56.04 45.984 58.776 45.984C61.368 45.984 63.384 46.704 64.824 48.144C66.264 49.584 67.128 51.6 67.416 54.192H67.848C69.096 51.408 70.656 49.344 72.528 48C74.4 46.656 76.704 45.984 79.44 45.984C82.56 45.984 84.888 46.872 86.424 48.648C88.008 50.424 88.8 52.944 88.8 56.208C88.8 57.744 88.632 59.352 88.296 61.032L84.696 79.104H89.952L89.016 84H83.832C82.392 84 81.24 83.664 80.376 82.992C79.512 82.32 79.08 81.288 79.08 79.896C79.08 79.512 79.152 78.96 79.296 78.24L82.752 61.032C83.04 59.592 83.184 58.272 83.184 57.072C83.184 55.056 82.728 53.544 81.816 52.536C80.952 51.528 79.512 51.024 77.496 51.024C75.24 51.024 73.152 52.008 71.232 53.976C70.032 55.176 69.024 56.64 68.208 58.368C67.44 60.096 66.912 61.728 66.624 63.264L62.448 84H56.904L61.512 61.104C61.8 59.664 61.944 58.272 61.944 56.928C61.944 52.992 60.216 51.024 56.76 51.024C55.512 51.024 54.336 51.288 53.232 51.816C52.128 52.344 51.168 53.04 50.352 53.904C49.008 55.248 47.904 56.784 47.04 58.512C46.176 60.24 45.6 61.824 45.312 63.264L41.136 84H35.592Z" fill="black"/>
</g>
<defs>
<clipPath id="clip0_301_54">
<rect width="128" height="128" fill="white"/>
</clipPath>
</defs>
</svg>
